<?xml version="1.0" standalone="no"?>
<!DOCTYPE svg PUBLIC "-//W3C//DTD SVG 1.1//EN" "http://www.w3.org/Graphics/SVG/1.1/DTD/svg11.dtd">
<svg width="800px" height="800px" version="1.1" xmlns="http://www.w3.org/2000/svg" xmlns:xlink="http://www.w3.org/1999/xlink" xml:space="preserve" style="fill-rule:evenodd;clip-rule:evenodd;stroke-linejoin:round;stroke-miterlimit:1.41421;">
    <g>
        <g id="Layer2">
            <path d="M-12.6915,-7.88088L809.19,-7.88088L809.19,814.001L-12.6915,814.001L-12.6915,-7.88088ZM52.0788,97.1519L171.116,99.7778L176.368,426.255L207.002,458.64L568.49,102.404L726.915,100.653L298.031,545.292L330.416,576.802L654.267,577.677L653.392,701.966L284.902,702.841L55.5799,472.644L52.0788,97.1519Z" style="fill:rgb(225,225,225);"/>
        </g>
        <g id="Layer1">
            <path d="M754.518,96.3873C759.611,91.2837 757.905,87.1021 750.665,87.1021L578.914,87.1021C571.697,87.1021 561.607,91.3016 556.537,96.4051L207.713,446.589L181.553,420.435L181.553,100.785C181.553,93.5605 175.642,87.6445 168.425,87.6445L55.6784,87.6445C48.4611,87.6445 42.5502,93.5605 42.5502,100.785L42.5502,464.866C42.5502,472.091 46.6835,482.227 51.754,487.366L264.145,703.541C269.215,708.681 279.259,712.898 286.476,712.898L650.575,712.898C657.793,712.898 663.703,707 663.703,699.77L663.703,582.936C663.703,575.718 657.793,569.795 650.575,569.795L330.926,569.795L306.002,544.886L754.518,96.3873ZM208.725,476.118L164.114,431.506L164.114,111.156L61.7068,111.156L64.7702,471.331L286.652,693.213L642.013,693.213L642.013,591.244L323.851,591.244L276.805,544.198L711.16,109.843L572.429,109.843L208.725,476.118Z" style="fill:black;"/>
        </g>
    </g>
</svg>
